<svg width="18" height="22" viewBox="0 0 18 22" fill="none" xmlns="http://www.w3.org/2000/svg">
<path d="M5.645 19.4437C5.86103 20.1824 6.30417 20.8302 6.90858 21.2907C7.513 21.7513 8.24645 22 9 22C9.75355 22 10.487 21.7513 11.0914 21.2907C11.6958 20.8302 12.139 20.1824 12.355 19.4437H5.645ZM0 18.4203H18V15.3503L16 12.2802V7.16345C16 6.22273 15.8189 5.29123 15.4672 4.42212C15.1154 3.55301 14.5998 2.76331 13.9497 2.09813C13.2997 1.43294 12.5281 0.905282 11.6788 0.545285C10.8295 0.185288 9.91925 0 9 0C8.08075 0 7.17049 0.185288 6.32122 0.545285C5.47194 0.905282 4.70026 1.43294 4.05025 2.09813C3.40024 2.76331 2.88463 3.55301 2.53284 4.42212C2.18106 5.29123 2 6.22273 2 7.16345V12.2802L0 15.3503V18.4203Z" fill="white"/>
</svg>
